<?xml version="1.0" encoding="utf-8"?>
<!-- Generator: Adobe Illustrator 24.2.1, SVG Export Plug-In . SVG Version: 6.00 Build 0)  -->
<svg version="1.1" id="Layer_1" xmlns="http://www.w3.org/2000/svg" xmlns:xlink="http://www.w3.org/1999/xlink" x="0px" y="0px"
	 viewBox="0 0 760 1074" style="enable-background:new 0 0 760 1074;" xml:space="preserve">
<style type="text/css">
	.st0{fill:#F1E0E0;}
	.st1{fill:#ABB4EB;}
	.st2{fill:#F2E2E2;}
	.st3{fill:#B6BDEE;}
	.st4{fill:#15427B;}
</style>
<path class="st0" d="M113.8,1014.1c0,0,67.1-66.1,113.6-25.9s39.2,48,39.2,48l-48.3,14.5l-54.9,5.8l-52.1-5.8L113.8,1014.1z"/>
<g>
	<path class="st1" d="M760,577.8v133.7c-10.7,1.1-21.6-0.2-32.1-2.3c-6.1-1.3-12.3-3.1-17.5-6.6c-4.8-3.4-5.6-10.7-2.6-15.5
		c5.4-4.7,13.5-0.8,19.2-4.9c3.4-2.7,2.8-7.6,0.9-11c-2.6-3.1-5.3-6-8.4-8.6c-11.6-9.6-24.8-17-36.3-26.8c-7.7-7-11-18.8-7.3-28.7
		c2.3-5.1,6.8-9.2,12.1-11c4.7-1.8,9.4,1,13.2,3.6c12.8,9.5,20.5,24.8,34.6,32.7c2.8,0.4,5.8,0.8,8.5,0c2.5-1.4,4.6-3.4,6.7-5.3
		c0.8-3.3,1.3-6.8-0.1-10c-1.7-4-4.5-7.4-7.3-10.6c-9.7-10.7-20.1-20.8-27.9-33c-6.7-10.8-11-23.6-10.5-36.4
		c0.1-9,5.4-18.3,14.1-21.5c4.9-2,10.7-0.8,14.8,2.4c5.6,4.5,9.1,11,11.2,17.7c4.1,10.4,3.3,21.9,6.5,32.5
		C753,572.4,755.9,576,760,577.8z"/>
</g>
<g>
	<path class="st2" d="M729.5,869.6c3.7-2.3,8.2-0.6,11.8,1c4.4,2.4,9.3,4.6,12.1,9c1.7,2.5,4.2,4.2,6.5,5.9V1074H655.6
		c5.6-4.4,11.2-9.1,15.2-15.1c2.6-3.8,2.4-8.5,3.6-12.7c1.6-5.9,1-12.1,1-18.2c0-8.8-3.2-17.2-3.4-26c-0.1-5.4-0.3-10.7-0.1-16.1
		c0.3-5.2,1.4-10.9,5.3-14.7c4-3.8,9.2-6.6,14.8-6.5c9,0,18,0.1,27,0c6.8-0.2,13.4-2.3,19.5-5.3c6.3-4,9.9-12,8.3-19.4
		c-1.5-7-4.6-13.6-7.6-20.1c-5.2-13.4-14.6-25.4-15.6-40.2C723.8,875.7,725.7,871.4,729.5,869.6z"/>
</g>
<g>
	<path class="st3" d="M0,918.6c5.7,0.8,8.5,6.5,9.8,11.4c3.8,17.4,1.5,35.7,6.3,52.9c1.8,5.7,5,12,11.3,13.6
		c7.7,3.1,16.2,0.6,23.3-2.9c10-4.7,18.7-12.3,29.4-15.4c7.5-2.3,15.8,1.1,20.5,7.2c6.2,7.6,9.6,16.9,13.2,25.9
		c4.5,11.8,9.3,24.3,18.9,33.1c7.4,7.2,18.3,10,28.4,8.8c16.2-2,31.3-8.7,46.7-13.7c10.1-4,20.7-6.9,30.7-11.3
		c1.7,1.3,3.3,2.7,5,3.9c13.6,9.9,27.9,18.8,42.1,27.8c6.6,4.3,13.6,8.2,18.9,14.1H0V918.6z"/>
</g>
<g>
	<g>
		<path class="st4" d="M511.6,1002.4c-1.6,9.6-3.5,19.2-5.8,28.6c-3.4,14.4-7.3,28.7-11.2,43H304.4c-5.3-5.9-12.3-9.8-18.9-14.1
			c-14.2-8.9-28.5-17.9-42.1-27.8c-1.7-1.3-3.4-2.6-5-3.9c-7-5.8-14.3-11.7-18.9-19.7c-2.2-4-4.1-9-1.8-13.3
			c1.7-3.9,5.6-6.2,9.6-6.9c11.2-1,21.8,3.4,31.9,7.8c12.2,5.3,23.9,11.9,35.4,18.6c19.7,11.5,38.8,24,58.5,35.5
			c7,3.8,14,8.3,21.9,10.1c2.9,1.2,6.7-2.3,5.2-5.2c-2.7-4.9-7.6-7.8-12-10.9c-16.1-10.3-33.3-19.1-48.8-30.5
			c-8.7-6.2-17.1-13.4-22.4-22.8c-4.5-8.5-3.6-18.8-0.1-27.5c0.6,0.7,1.1,1.4,1.7,2.1l-1.4-2c0.7-0.1,2.2-0.3,2.9-0.4
			c-0.8,0.1-2.3,0.2-3.1,0.3c2.3-2.9,5-6.1,9-6.7c7.2-1,14.2,2.4,20.1,6.3c12.6,8.9,22.6,20.9,32.3,32.8
			c13.1,16.2,25.2,33.4,41,47.2c5.5,4.5,11.7,8.8,18.8,10.2c1.6,0.5,3.2,0,4.8-0.4c-1.4-2.4-3-4.7-4.7-6.8
			c-8.6-9.6-17.7-18.8-26.4-28.4c-8.7-9.8-17.4-19.9-23.2-31.8c-2.3-4.5-4-9.4-3.9-14.5c0.2-4.9,3-9.5,7-12.2
			c6.5-5.1,15.4-4.8,23-3.2c3,0.6,6,1.5,8.9,2.7c4.4,1.7,8.6,3.8,12.5,6.4c1.8,1.2,3.6,2.5,5.3,3.9c13.9,11.8,21.1,29.5,24.6,47
			c1.5,7,2.6,14.1,3.7,21.2c1.1,6.5,2.1,13.1,5.4,19c2,3.3,6.1,6,10,4.7c1-1.2,1.3-2.8,1.4-4.3c0.5-9.1-0.8-18.2-1.5-27.2
			c-0.9-8.6-1.1-17.3-1-26c0.1-6.1,0.2-12.3,1.6-18.3c1.3-6,3.1-12.1,7.1-16.9c6.2-8.2,18.3-11.8,27.8-7.3c6.3,2.9,10.4,9.1,12,15.7
			C514.5,984.8,513,993.7,511.6,1002.4z"/>
	</g>
</g>
</svg>
